<mxfile host="app.diagrams.net" modified="2022-05-25T09:45:52.634Z" agent="5.0 (Macintosh; Intel Mac OS X 10_15_7) AppleWebKit/537.36 (KHTML, like Gecko) Chrome/101.0.4951.64 Safari/537.36" etag="G5cgG5f5Ycxcm-_w6CHf" version="18.0.8" type="github">
  <diagram id="6jrDWBJmF3baHXsb6OeT" name="Page-1">
    <mxGraphModel dx="1426" dy="794" grid="1" gridSize="10" guides="1" tooltips="1" connect="1" arrows="1" fold="1" page="1" pageScale="1" pageWidth="850" pageHeight="1100" math="0" shadow="0">
      <root>
        <mxCell id="0" />
        <mxCell id="1" parent="0" />
        <mxCell id="UgQxpTbrEwoZkIxi-_nc-3" value="" style="edgeStyle=orthogonalEdgeStyle;rounded=0;orthogonalLoop=1;jettySize=auto;html=1;fontSize=30;strokeWidth=2;" edge="1" parent="1" source="UgQxpTbrEwoZkIxi-_nc-1" target="UgQxpTbrEwoZkIxi-_nc-2">
          <mxGeometry relative="1" as="geometry" />
        </mxCell>
        <mxCell id="UgQxpTbrEwoZkIxi-_nc-1" value="&lt;font style=&quot;font-size: 30px;&quot;&gt;Traces&lt;/font&gt;" style="rounded=0;whiteSpace=wrap;html=1;fillColor=#d5e8d4;strokeColor=#82b366;strokeWidth=2;" vertex="1" parent="1">
          <mxGeometry x="90" y="160" width="200" height="260" as="geometry" />
        </mxCell>
        <mxCell id="UgQxpTbrEwoZkIxi-_nc-2" value="&lt;font style=&quot;font-size: 25px;&quot;&gt;EVM Proof&lt;/font&gt;" style="rounded=0;whiteSpace=wrap;html=1;fillColor=#dae8fc;strokeColor=#6c8ebf;" vertex="1" parent="1">
          <mxGeometry x="90" y="570" width="200" height="260" as="geometry" />
        </mxCell>
        <mxCell id="UgQxpTbrEwoZkIxi-_nc-4" value="&lt;font style=&quot;font-size: 25px;&quot;&gt;State Proof&lt;/font&gt;" style="rounded=0;whiteSpace=wrap;html=1;fillColor=#f8cecc;strokeColor=#b85450;" vertex="1" parent="1">
          <mxGeometry x="520" y="570" width="200" height="260" as="geometry" />
        </mxCell>
        <mxCell id="UgQxpTbrEwoZkIxi-_nc-5" value="" style="endArrow=classic;html=1;rounded=0;fontSize=25;strokeWidth=2;" edge="1" parent="1" target="UgQxpTbrEwoZkIxi-_nc-4">
          <mxGeometry width="50" height="50" relative="1" as="geometry">
            <mxPoint x="290" y="700" as="sourcePoint" />
            <mxPoint x="340" y="650" as="targetPoint" />
          </mxGeometry>
        </mxCell>
        <mxCell id="UgQxpTbrEwoZkIxi-_nc-6" value="&lt;span style=&quot;font-size: 17px; line-height: 1;&quot;&gt;All transaction/traces correct&lt;br&gt;opcode and call stuff&lt;br&gt;&lt;/span&gt;" style="text;html=1;strokeColor=none;fillColor=none;align=center;verticalAlign=middle;whiteSpace=wrap;rounded=0;fontSize=25;" vertex="1" parent="1">
          <mxGeometry x="40" y="460" width="300" height="80" as="geometry" />
        </mxCell>
        <mxCell id="UgQxpTbrEwoZkIxi-_nc-7" value="&lt;span style=&quot;font-size: 17px; line-height: 1;&quot;&gt;opcode、stack、memory&lt;br&gt;prove one by one&lt;br&gt;&lt;/span&gt;" style="text;html=1;strokeColor=none;fillColor=none;align=center;verticalAlign=middle;whiteSpace=wrap;rounded=0;fontSize=25;" vertex="1" parent="1">
          <mxGeometry x="250" y="690" width="300" height="80" as="geometry" />
        </mxCell>
      </root>
    </mxGraphModel>
  </diagram>
</mxfile>
